<svg id="Слой_1" xmlns="http://www.w3.org/2000/svg" viewBox="0 0 100 100">
  <style>
    .st0{fill:#E74C3C;} .st1{fill:#F1F2F2;}
  </style>
  <path class="st0" d="M39.5 4.9c6-4.5 14.2-4.5 20.2 0 3.3 2.5 7.3 4 11.4 4.2 7.5.4 13.8 5.7 15.5 13 .9 4 3 7.7 6.1 10.5 5.5 5.1 6.9 13.2 3.5 19.9-1.9 3.7-2.6 7.8-2.1 11.9.9 7.4-3.2 14.6-10.2 17.5-3.8 1.6-7.1 4.3-9.3 7.8-4 6.3-11.8 9.1-19 6.9-3.9-1.2-8.2-1.2-12.1 0-7.1 2.2-14.9-.6-19-6.9-2.2-3.5-5.5-6.2-9.3-7.8-6.8-2.9-11-10.1-10-17.5.5-4.1-.2-8.3-2.1-11.9-3.4-6.7-2-14.8 3.5-19.9 3-2.8 5.2-6.5 6.1-10.5 1.6-7.3 8-12.6 15.5-13 4-.2 8-1.7 11.3-4.2z"/>
  <path class="st0" d="M38.6 93.1c-4.3 0-8.2-2.1-10.5-5.7-2.7-4.2-6.6-7.5-11.2-9.4-5.1-2.1-8.2-7.5-7.5-13 .6-5-.2-10-2.5-14.4-2.6-4.9-1.5-11 2.6-14.8 3.7-3.4 6.2-7.8 7.3-12.7 1.2-5.4 6-9.4 11.5-9.7 5-.2 9.8-2 13.8-5 2.2-1.7 4.8-2.5 7.5-2.5s5.3.9 7.5 2.5c4 3 8.8 4.8 13.8 5 5.6.3 10.3 4.2 11.5 9.7 1.1 4.9 3.6 9.3 7.3 12.7 4.1 3.8 5.2 9.9 2.6 14.8-2.3 4.5-3.2 9.5-2.5 14.4.7 5.5-2.4 10.9-7.5 13-4.6 1.9-8.5 5.2-11.2 9.4-2.3 3.6-6.2 5.7-10.5 5.7-1.2 0-2.5-.2-3.7-.6-2.4-.7-4.8-1.1-7.3-1.1s-5 .4-7.3 1.1c-1.2.4-2.5.6-3.7.6z"/>
  <path class="st1" d="M35.4 58h-4.5v-9.6c0-1.2-.2-2.1-.6-2.7-.4-.6-1.1-.9-2-.9-1.3 0-2.2.4-2.7 1.3s-.8 2.2-.8 4.2V58h-4.5V41.5h3.4l.6 2.1h.3c.5-.8 1.2-1.4 2.1-1.8.9-.4 1.9-.6 3-.6 1.9 0 3.4.5 4.4 1.6 1 1 1.5 2.5 1.5 4.5V58zM47.5 58.3c-2.7 0-4.7-.7-6.2-2.2S39 52.5 39 49.8c0-2.8.7-4.9 2.1-6.4 1.4-1.5 3.3-2.3 5.7-2.3 2.3 0 4.2.7 5.5 2 1.3 1.3 2 3.2 2 5.5v2.2H43.6c0 1.3.4 2.3 1.1 3 .7.7 1.7 1.1 3 1.1 1 0 1.9-.1 2.8-.3.9-.2 1.8-.5 2.8-1v3.5c-.8.4-1.6.7-2.5.9-.9.2-2 .3-3.3.3zm-.6-13.9c-1 0-1.7.3-2.2.9-.5.6-.9 1.5-.9 2.6H50c0-1.1-.3-2-.9-2.6s-1.3-.9-2.2-.9zM71.5 58l-1.3-5.8-1.7-7.3h-.1l-3 13.1h-4.8l-4.7-16.5h4.5l1.9 7.3c.3 1.3.6 3.1.9 5.4h.1c0-.7.2-1.9.5-3.6l.2-1.3 2-7.9h5l1.9 7.9c0 .2.1.5.2 1 .1.4.2.9.2 1.4.1.5.2.9.2 1.4.1.5.1.8.1 1.1h.1c.1-.7.2-1.7.5-2.9.2-1.2.4-2.1.5-2.5l2-7.3h4.4L76.4 58h-4.9z"/>
</svg>
